<?xml version="1.0" standalone="no"?>
 <!DOCTYPE svg PUBLIC "-//W3C//DTD SVG 1.1//EN" 
 "http://www.w3.org/Graphics/SVG/1.1/DTD/svg11.dtd"> 
<svg
  xmlns:svg="http://www.w3.org/2000/svg"
  xmlns="http://www.w3.org/2000/svg"
  xmlns:xlink="http://www.w3.org/1999/xlink"
  version="1.1"
  width="297.0022mm" height="210.0072mm" viewBox="0.0000 0.0000 297.0022 210.0072">
<title>SVG Image created as EnvFilterPedal-User_2.svg date 2025/01/24 14:56:11 </title>
  <desc>Image generated by PCBNEW </desc>
<g style="fill:#000000; fill-opacity:1.0000;stroke:#000000; stroke-opacity:1.0000;
stroke-linecap:round; stroke-linejoin:round;"
 transform="translate(0 0) scale(1 1)">
<path style="fill:#000084; fill-opacity:1.0000; 
stroke:#000084; stroke-width:0.1000; stroke-opacity:1; 
stroke-linecap:round; stroke-linejoin:round;fill-rule:evenodd;"
d="M 70.3000,1.1000
92.5000,1.1000
92.5000,20.7000
70.3000,20.7000
Z" /> 
<path style="fill:#000084; fill-opacity:1.0000; 
stroke:#000084; stroke-width:0.1000; stroke-opacity:1; 
stroke-linecap:round; stroke-linejoin:round;fill-rule:evenodd;"
d="M 0.0500,1.6000
22.2500,1.6000
22.2500,21.2000
0.0500,21.2000
Z" /> 
<path style="fill:none; 
stroke:#000084; stroke-width:0.1000; stroke-opacity:1; 
stroke-linecap:round; stroke-linejoin:round;fill:none"
d="M 0.0000,0.0000
92.4000,0.0000
92.4000,117.6000
0.0000,117.6000
Z" /> 
<path style="fill:none; 
stroke:#000084; stroke-width:0.1000; stroke-opacity:1; 
stroke-linecap:round; stroke-linejoin:round;fill:none"
d="M 36.6000,98.1500
56.4000,98.1500
56.4000,115.3500
36.6000,115.3500
Z" /> 
<path style="fill:#000084; fill-opacity:1.0000; 
stroke:#000084; stroke-width:0.1000; stroke-opacity:1; 
stroke-linecap:round; stroke-linejoin:round;fill-rule:evenodd;"
d="M 70.1000,23.4500
92.3000,23.4500
92.3000,43.0500
70.1000,43.0500
Z" /> 
<path style="fill:#000084; fill-opacity:1.0000; 
stroke:#000084; stroke-width:0.1000; stroke-opacity:1; 
stroke-linecap:round; stroke-linejoin:round;fill-rule:evenodd;"
d="M -0.1500,23.4500
22.0500,23.4500
22.0500,43.0500
-0.1500,43.0500
Z" /> 
</g>
<g style="fill:none; 
stroke:#000084; stroke-width:0.1000; stroke-opacity:1; 
stroke-linecap:round; stroke-linejoin:round;">
<path d="M22.0000 78.7000
L29.0000 78.7000
" />
<path d="M25.5000 75.2000
L25.5000 82.2000
" />
<circle cx="25.5000" cy="78.7000" r="3.5000" /> 
<circle cx="25.5000" cy="78.7000" r="8.0000" /> 
<path d="M70.5750 54.2375
L77.5750 54.2375
" />
<path d="M74.0750 50.7375
L74.0750 57.7375
" />
<circle cx="74.0750" cy="54.2375" r="3.5000" /> 
<circle cx="74.0750" cy="54.2375" r="8.0000" /> 
<path d="M14.5750 54.2375
L21.5750 54.2375
" />
<path d="M18.0750 50.7375
L18.0750 57.7375
" />
<circle cx="18.0750" cy="54.2375" r="3.5000" /> 
<circle cx="18.0750" cy="54.2375" r="8.0000" /> 
<path d="M58.5000 78.7000
L65.5000 78.7000
" />
<path d="M62.0000 75.2000
L62.0000 82.2000
" />
<circle cx="62.0000" cy="78.7000" r="3.5000" /> 
<circle cx="62.0000" cy="78.7000" r="8.0000" /> 
<path d="M29.8750 48.8000
L32.8750 48.8000
" />
<path d="M31.3750 47.3000
L31.3750 50.3000
" />
<circle cx="31.3750" cy="48.8000" r="1.5000" /> 
<path d="M56.3750 48.8000
L59.3750 48.8000
" />
<path d="M57.8750 47.3000
L57.8750 50.3000
" />
<circle cx="57.8750" cy="48.8000" r="1.5000" /> 
<path d="M40.7000 34.9000
L47.7000 34.9000
" />
<path d="M44.2000 31.4000
L44.2000 38.4000
" />
<circle cx="44.2000" cy="34.9000" r="3.5000" /> 
<circle cx="44.2000" cy="34.9000" r="8.0000" /> 
<path d="M58.3500 58.2000
L61.3500 58.2000
" />
<path d="M59.8500 56.7000
L59.8500 59.7000
" />
<circle cx="59.8500" cy="58.2000" r="1.5000" /> 
<path d="M64.5500 59.6250
L64.5500 56.6250
" />
<path d="M66.0500 58.1250
L63.0500 58.1250
" />
<circle cx="64.5500" cy="58.1250" r="1.5000" /> 
<path style="fill:none; 
stroke:#C2C200; stroke-width:0.1000; stroke-opacity:1; 
stroke-linecap:round; stroke-linejoin:round;fill:none"
d="M 4.0000,44.7000
84.0000,44.7000
84.0000,96.7000
4.0000,96.7000
Z" /> 
</g> 
</svg>
